<svg xmlns="http://www.w3.org/2000/svg" viewBox="0 0 292.8 295.11"><g id="Calque_2" data-name="Calque 2"><g id="Calque_1-2" data-name="Calque 1"><path d="M278.27,292.85c-40.16-7.38-84.73-17.56-125.68-25.26-7-1.28-14.85-.25-22,1.29-36.54,7.92-73,16.35-109.44,24.59-6.54,1.47-13.36,3.82-18.59-2.74C-2.5,284.38,1,278.35,3.9,272.48Q68.58,142.07,132.77,11.4a37.32,37.32,0,0,1,4.31-7.24c4.86-5.9,13.26-5.44,17.65.84,45.53,88.62,88.32,178.77,135.08,266.76C295.64,281.78,293.54,293,278.27,292.85Z"/></g></g></svg>